<svg width="718" height="947" viewBox="0 0 718 947" fill="none" xmlns="http://www.w3.org/2000/svg">
<path fill-rule="evenodd" clip-rule="evenodd" d="M379.595 7.66268C450.028 38.2138 436.792 187.17 499.057 238.658C560.198 289.217 679.85 198.823 711.304 281.96C742.495 364.403 608.302 421.998 602.87 513.056C596.724 616.104 710.525 704.592 680.363 800.703C653.324 886.863 551.26 879.834 480.2 903.94C410.733 927.506 341.227 957.272 270.649 939.693C196.418 921.205 117.702 883.164 76.3881 803.363C36.019 725.386 70.3484 622.637 58.9036 530.686C47.2511 437.066 -18.9454 347.574 8.68615 259.426C36.219 171.593 126.147 150.36 192.172 105.544C252.936 64.2987 314.325 -20.6485 379.595 7.66268Z" stroke="black" stroke-width="3"/>
</svg>
