<svg width="23" height="23" viewBox="0 0 23 23" fill="none" xmlns="http://www.w3.org/2000/svg">
<path d="M9 9V0H9.25L9.51953 0.0537109C10.1716 0.184136 10.835 0.25 11.5 0.25C12.165 0.25 12.8284 0.184136 13.4805 0.0537109L13.75 0H14V9H23V9.25L22.9463 9.51953C22.8159 10.1716 22.75 10.835 22.75 11.5C22.75 12.165 22.8159 12.8284 22.9463 13.4805L23 13.75V14H14V23H13.75L13.4805 22.9463C12.8284 22.8159 12.165 22.75 11.5 22.75C10.835 22.75 10.1716 22.8159 9.51953 22.9463L9.25 23H9V14H0V13.75L0.0537109 13.4805C0.184136 12.8284 0.25 12.165 0.25 11.5C0.25 10.835 0.184136 10.1716 0.0537109 9.51953L0 9.25V9H9Z" fill="black"/>
</svg>
