<svg width="482" height="523" viewBox="0 0 482 523" fill="none" xmlns="http://www.w3.org/2000/svg">
<path fill-rule="evenodd" clip-rule="evenodd" d="M297.205 8.3439C338.406 -6.01014 385.319 3.32498 419.155 33.0031C453.457 63.09 470.18 115.81 478.508 167.367C486.3 215.61 467.116 263.213 464.356 312.838C460.722 378.172 500.29 460.841 459.733 504.919C418.553 549.676 356.745 489.59 303.134 488.061C264.782 486.968 227.603 506.149 190.195 497.234C147.363 487.026 105.333 469.813 73.9224 433.435C38.3351 392.22 3.2001 340.975 2.2031 279.513C1.20611 218.052 26.6063 149.976 68.7551 114.888C109.774 80.7415 165.355 126.853 211.361 105.397C248.128 88.2494 259.494 21.482 297.205 8.3439Z" stroke="white" stroke-opacity="0.84" stroke-width="3"/>
</svg>
