<svg width="482" height="523" viewBox="0 0 482 523" fill="none" xmlns="http://www.w3.org/2000/svg">
<path fill-rule="evenodd" clip-rule="evenodd" d="M297.205 8.3439C338.406 -6.01014 385.319 3.32498 419.155 33.0031C453.458 63.09 470.18 115.81 478.508 167.367C486.301 215.61 467.116 263.213 464.356 312.838C460.722 378.172 500.29 460.841 459.734 504.919C418.553 549.676 356.745 489.59 303.134 488.061C264.782 486.968 227.603 506.149 190.195 497.234C147.363 487.026 105.333 469.813 73.9226 433.435C38.3354 392.22 3.20035 340.975 2.20334 279.513C1.20636 218.052 26.6065 149.976 68.7553 114.888C109.775 80.7415 165.356 126.853 211.361 105.397C248.129 88.2494 259.495 21.482 297.205 8.3439Z" stroke="white" stroke-opacity="0.84" stroke-width="3"/>
</svg>
