<svg width="1783" height="1509" viewBox="0 0 1783 1509" fill="none" xmlns="http://www.w3.org/2000/svg">
<path fill-rule="evenodd" clip-rule="evenodd" d="M848.178 164.06C937.425 147.779 1017.37 106.162 1107.52 98.5649C1326.37 80.1209 1610.86 -102.324 1752.49 87.8492C1874.78 252.056 1566.18 456.464 1531.44 667.783C1499.02 864.955 1734.35 1220.67 1560.37 1256.4C1303.64 1309.12 1165.12 733.128 910.053 795.391C682.983 850.821 815.661 1374.11 606.721 1489.19C460.586 1569.69 223.152 1361.7 216.163 1177.59C207.076 938.183 619.804 834.898 573.015 601.221C519.509 333.995 -37.4724 389.04 4.22732 119.121C41.5679 -122.582 421.346 172.816 637.422 184.322C709.304 188.149 777.13 177.021 848.178 164.06Z" stroke="black" stroke-width="3"/>
</svg>
