<svg width="517" height="539" viewBox="0 0 517 539" fill="none" xmlns="http://www.w3.org/2000/svg">
<path fill-rule="evenodd" clip-rule="evenodd" d="M413.408 21.7029C456.367 29.3228 492.729 60.4007 507.737 102.832C522.953 145.848 511.768 200.013 493.828 249.061C477.041 294.956 437.034 327.104 410.366 369.045C375.256 424.264 369.359 515.724 312.431 534.349C254.627 553.261 230.082 470.629 184.062 443.087C151.14 423.384 109.329 421.941 81.0544 395.875C48.6801 366.032 20.4299 330.469 10.8126 283.378C-0.0834894 230.026 -5.68182 168.146 23.4953 114.042C52.6717 59.9389 108.11 12.9692 162.032 2.96582C214.509 -6.7695 240.453 60.6281 291.075 64.4013C331.533 67.4169 374.088 14.7284 413.408 21.7029Z" stroke="white" stroke-opacity="0.84" stroke-width="3"/>
</svg>
