<svg width="536" height="550" viewBox="0 0 536 550" fill="none" xmlns="http://www.w3.org/2000/svg">
<path fill-rule="evenodd" clip-rule="evenodd" d="M488.794 146.308C522.803 173.639 539.75 218.369 532.516 262.791C525.183 307.825 489.339 349.947 450.032 384.334C413.252 416.511 362.717 425.472 319.172 449.432C261.843 480.978 212.71 558.345 153.837 547.315C94.0583 536.115 112.253 451.856 85.1359 405.584C65.737 372.482 29.7666 351.12 17.5006 314.672C3.45622 272.941 -4.22284 228.177 9.97828 182.26C26.0676 130.238 50.9018 73.2844 102.493 39.8643C154.084 6.44504 225.274 -8.0958 277.367 9.05033C328.064 25.737 318.419 97.3087 360.996 124.95C395.024 147.04 457.667 121.292 488.794 146.308Z" stroke="white" stroke-opacity="0.84" stroke-width="3"/>
</svg>
