<svg width="509" height="520" viewBox="0 0 509 520" fill="none" xmlns="http://www.w3.org/2000/svg">
<path fill-rule="evenodd" clip-rule="evenodd" d="M249.275 17.3515C287.32 -4.0057 335.144 -3.04269 373.66 20.2414C412.707 43.8463 438.416 92.8162 455.657 142.114C471.789 188.243 461.251 238.473 467.236 287.812C475.117 352.771 528.569 427.22 496.372 477.727C463.679 529.012 392.291 480.697 339.243 488.594C301.294 494.244 268.055 519.648 229.663 517.431C185.705 514.893 141.307 505.318 104.004 475.012C61.7398 440.677 18.1622 396.388 6.40174 336.054C-5.35848 275.721 7.70909 204.245 43.0512 162.309C77.4462 121.498 140.253 157.147 181.782 127.955C214.973 104.625 214.453 36.8995 249.275 17.3515Z" stroke="white" stroke-opacity="0.84" stroke-width="3"/>
</svg>
